<?xml version="1.0" encoding="utf-8"?>
<!-- created with bpmn-js / http://bpmn.io -->
<!DOCTYPE svg PUBLIC "-//W3C//DTD SVG 1.1//EN" "http://www.w3.org/Graphics/SVG/1.1/DTD/svg11.dtd">
<svg xmlns="http://www.w3.org/2000/svg" xmlns:xlink="http://www.w3.org/1999/xlink" width="1038" height="184" viewBox="-981 310 1038 184" version="1.1"><defs><marker id="sequenceflow-end-white-black" viewBox="0 0 20 20" refX="11" refY="10" markerWidth="10" markerHeight="10" orient="auto"><path d="M 1 5 L 11 10 L 1 15 Z" style="fill: black; stroke-width: 1px; stroke-linecap: round; stroke-dasharray: 10000, 1; stroke: black;"></path></marker></defs><g class="djs-group"><g class="djs-element djs-shape" data-element-id="Participant_0ldhtys" style="display: block;" transform="translate(-975 316)"><g class="djs-visual"><rect x="0" y="0" width="1026" height="172" rx="0" ry="0" style="stroke: black; stroke-width: 2px; fill: white; fill-opacity: 0.95;"/><polyline points="30,0 30,172 " style="fill: none; stroke: black; stroke-width: 2px;"/><text class="djs-label" style="font-family: Arial, sans-serif; font-size: 12px; fill: black;" transform="matrix(-1.83697e-16 -1 1 -1.83697e-16 0 172)"><tspan x="55" y="11.5">Proceso de </tspan><tspan x="16.5" y="25.5">ConfiguracionProduccion </tspan></text></g><rect x="0" y="0" width="1026" height="172" class="djs-hit" style="fill: none; stroke-opacity: 0; stroke: white; stroke-width: 15px;"/><rect x="-6" y="-6" width="1038" height="184" class="djs-outline" style="fill: none;"/></g><g class="djs-children"><g class="djs-group"><g class="djs-element djs-shape" data-element-id="StartEvent_1uqjwxz" style="display: block;" transform="translate(-904 372)"><g class="djs-visual"><circle cx="18" cy="18" r="18" style="stroke: black; stroke-width: 2px; fill: green;"/></g><rect x="0" y="0" width="36" height="36" class="djs-hit" style="fill: none; stroke-opacity: 0; stroke: white; stroke-width: 15px;"/><rect x="-6" y="-6" width="48" height="48" class="djs-outline" style="fill: none;"/></g></g><g class="djs-group"><g class="djs-element djs-shape" data-element-id="UserTask_17cbke0" style="display: block;" transform="translate(-825 350)"><g class="djs-visual"><rect x="0" y="0" width="100" height="80" rx="10" ry="10" style="stroke: black; stroke-width: 2px; fill: rgb(187, 222, 251);"/><text class="djs-label" style="font-family: Arial, sans-serif; font-size: 12px; fill: black;"><tspan x="8.5" y="43.5">Crear Producto</tspan></text><path d="m 15,12 c 0.909,-0.845 1.594,-2.049 1.594,-3.385 0,-2.554 -1.805,-4.62199999 -4.357,-4.62199999 -2.55199998,0 -4.28799998,2.06799999 -4.28799998,4.62199999 0,1.348 0.974,2.562 1.89599998,3.405 -0.52899998,0.187 -5.669,2.097 -5.794,4.7560005 v 6.718 h 17 v -6.718 c 0,-2.2980005 -5.5279996,-4.5950005 -6.0509996,-4.7760005 zm -8,6 l 0,5.5 m 11,0 l 0,-5" style="fill: rgb(187, 222, 251); stroke-width: 0.5px; stroke: black;"/><path d="m 15,12 m 2.162,1.009 c 0,2.4470005 -2.158,4.4310005 -4.821,4.4310005 -2.66499998,0 -4.822,-1.981 -4.822,-4.4310005 " style="fill: rgb(187, 222, 251); stroke-width: 0.5px; stroke: black;"/><path d="m 15,12 m -6.9,-3.80 c 0,0 2.25099998,-2.358 4.27399998,-1.177 2.024,1.181 4.221,1.537 4.124,0.965 -0.098,-0.57 -0.117,-3.79099999 -4.191,-4.13599999 -3.57499998,0.001 -4.20799998,3.36699999 -4.20699998,4.34799999 z" style="fill: black; stroke-width: 0.5px; stroke: black;"/></g><rect x="0" y="0" width="100" height="80" class="djs-hit" style="fill: none; stroke-opacity: 0; stroke: white; stroke-width: 15px;"/><rect x="-6" y="-6" width="112" height="92" class="djs-outline" style="fill: none;"/></g></g><g class="djs-group"><g class="djs-element djs-shape" data-element-id="UserTask_0pb4kpg" style="display: block;" transform="translate(-671 350)"><g class="djs-visual"><rect x="0" y="0" width="100" height="80" rx="10" ry="10" style="stroke: black; stroke-width: 2px; fill: rgb(187, 222, 251);"/><text class="djs-label" style="font-family: Arial, sans-serif; font-size: 12px; fill: black;"><tspan x="11.5" y="36.5">Crear Lista de </tspan><tspan x="21.5" y="50.5">Materiales </tspan></text><path d="m 15,12 c 0.909,-0.845 1.594,-2.049 1.594,-3.385 0,-2.554 -1.805,-4.62199999 -4.357,-4.62199999 -2.55199998,0 -4.28799998,2.06799999 -4.28799998,4.62199999 0,1.348 0.974,2.562 1.89599998,3.405 -0.52899998,0.187 -5.669,2.097 -5.794,4.7560005 v 6.718 h 17 v -6.718 c 0,-2.2980005 -5.5279996,-4.5950005 -6.0509996,-4.7760005 zm -8,6 l 0,5.5 m 11,0 l 0,-5" style="fill: rgb(187, 222, 251); stroke-width: 0.5px; stroke: black;"/><path d="m 15,12 m 2.162,1.009 c 0,2.4470005 -2.158,4.4310005 -4.821,4.4310005 -2.66499998,0 -4.822,-1.981 -4.822,-4.4310005 " style="fill: rgb(187, 222, 251); stroke-width: 0.5px; stroke: black;"/><path d="m 15,12 m -6.9,-3.80 c 0,0 2.25099998,-2.358 4.27399998,-1.177 2.024,1.181 4.221,1.537 4.124,0.965 -0.098,-0.57 -0.117,-3.79099999 -4.191,-4.13599999 -3.57499998,0.001 -4.20799998,3.36699999 -4.20699998,4.34799999 z" style="fill: black; stroke-width: 0.5px; stroke: black;"/></g><rect x="0" y="0" width="100" height="80" class="djs-hit" style="fill: none; stroke-opacity: 0; stroke: white; stroke-width: 15px;"/><rect x="-6" y="-6" width="112" height="92" class="djs-outline" style="fill: none;"/></g></g><g class="djs-group"><g class="djs-element djs-shape" data-element-id="UserTask_0h5c9f0" style="display: block;" transform="translate(-516 350)"><g class="djs-visual"><rect x="0" y="0" width="100" height="80" rx="10" ry="10" style="stroke: black; stroke-width: 2px; fill: rgb(187, 222, 251);"/><text class="djs-label" style="font-family: Arial, sans-serif; font-size: 12px; fill: black;"><tspan x="20" y="36.5">Centros de </tspan><tspan x="19" y="50.5">Produccion </tspan></text><path d="m 15,12 c 0.909,-0.845 1.594,-2.049 1.594,-3.385 0,-2.554 -1.805,-4.62199999 -4.357,-4.62199999 -2.55199998,0 -4.28799998,2.06799999 -4.28799998,4.62199999 0,1.348 0.974,2.562 1.89599998,3.405 -0.52899998,0.187 -5.669,2.097 -5.794,4.7560005 v 6.718 h 17 v -6.718 c 0,-2.2980005 -5.5279996,-4.5950005 -6.0509996,-4.7760005 zm -8,6 l 0,5.5 m 11,0 l 0,-5" style="fill: rgb(187, 222, 251); stroke-width: 0.5px; stroke: black;"/><path d="m 15,12 m 2.162,1.009 c 0,2.4470005 -2.158,4.4310005 -4.821,4.4310005 -2.66499998,0 -4.822,-1.981 -4.822,-4.4310005 " style="fill: rgb(187, 222, 251); stroke-width: 0.5px; stroke: black;"/><path d="m 15,12 m -6.9,-3.80 c 0,0 2.25099998,-2.358 4.27399998,-1.177 2.024,1.181 4.221,1.537 4.124,0.965 -0.098,-0.57 -0.117,-3.79099999 -4.191,-4.13599999 -3.57499998,0.001 -4.20799998,3.36699999 -4.20699998,4.34799999 z" style="fill: black; stroke-width: 0.5px; stroke: black;"/></g><rect x="0" y="0" width="100" height="80" class="djs-hit" style="fill: none; stroke-opacity: 0; stroke: white; stroke-width: 15px;"/><rect x="-6" y="-6" width="112" height="92" class="djs-outline" style="fill: none;"/></g></g><g class="djs-group"><g class="djs-element djs-shape" data-element-id="UserTask_0oj8v8j" style="display: block;" transform="translate(-361 350)"><g class="djs-visual"><rect x="0" y="0" width="100" height="80" rx="10" ry="10" style="stroke: black; stroke-width: 2px; fill: rgb(187, 222, 251);"/><text class="djs-label" style="font-family: Arial, sans-serif; font-size: 12px; fill: black;"><tspan x="25.5" y="36.5">Rutas de </tspan><tspan x="19.5" y="50.5">produccion </tspan></text><path d="m 15,12 c 0.909,-0.845 1.594,-2.049 1.594,-3.385 0,-2.554 -1.805,-4.62199999 -4.357,-4.62199999 -2.55199998,0 -4.28799998,2.06799999 -4.28799998,4.62199999 0,1.348 0.974,2.562 1.89599998,3.405 -0.52899998,0.187 -5.669,2.097 -5.794,4.7560005 v 6.718 h 17 v -6.718 c 0,-2.2980005 -5.5279996,-4.5950005 -6.0509996,-4.7760005 zm -8,6 l 0,5.5 m 11,0 l 0,-5" style="fill: rgb(187, 222, 251); stroke-width: 0.5px; stroke: black;"/><path d="m 15,12 m 2.162,1.009 c 0,2.4470005 -2.158,4.4310005 -4.821,4.4310005 -2.66499998,0 -4.822,-1.981 -4.822,-4.4310005 " style="fill: rgb(187, 222, 251); stroke-width: 0.5px; stroke: black;"/><path d="m 15,12 m -6.9,-3.80 c 0,0 2.25099998,-2.358 4.27399998,-1.177 2.024,1.181 4.221,1.537 4.124,0.965 -0.098,-0.57 -0.117,-3.79099999 -4.191,-4.13599999 -3.57499998,0.001 -4.20799998,3.36699999 -4.20699998,4.34799999 z" style="fill: black; stroke-width: 0.5px; stroke: black;"/></g><rect x="0" y="0" width="100" height="80" class="djs-hit" style="fill: none; stroke-opacity: 0; stroke: white; stroke-width: 15px;"/><rect x="-6" y="-6" width="112" height="92" class="djs-outline" style="fill: none;"/></g></g><g class="djs-group"><g class="djs-element djs-shape" data-element-id="UserTask_1c2lzwd" style="display: block;" transform="translate(-204 350)"><g class="djs-visual"><rect x="0" y="0" width="100" height="80" rx="10" ry="10" style="stroke: black; stroke-width: 2px; fill: rgb(187, 222, 251);"/><text class="djs-label" style="font-family: Arial, sans-serif; font-size: 12px; fill: black;"><tspan x="24" y="43.5">Recursos</tspan></text><path d="m 15,12 c 0.909,-0.845 1.594,-2.049 1.594,-3.385 0,-2.554 -1.805,-4.62199999 -4.357,-4.62199999 -2.55199998,0 -4.28799998,2.06799999 -4.28799998,4.62199999 0,1.348 0.974,2.562 1.89599998,3.405 -0.52899998,0.187 -5.669,2.097 -5.794,4.7560005 v 6.718 h 17 v -6.718 c 0,-2.2980005 -5.5279996,-4.5950005 -6.0509996,-4.7760005 zm -8,6 l 0,5.5 m 11,0 l 0,-5" style="fill: rgb(187, 222, 251); stroke-width: 0.5px; stroke: black;"/><path d="m 15,12 m 2.162,1.009 c 0,2.4470005 -2.158,4.4310005 -4.821,4.4310005 -2.66499998,0 -4.822,-1.981 -4.822,-4.4310005 " style="fill: rgb(187, 222, 251); stroke-width: 0.5px; stroke: black;"/><path d="m 15,12 m -6.9,-3.80 c 0,0 2.25099998,-2.358 4.27399998,-1.177 2.024,1.181 4.221,1.537 4.124,0.965 -0.098,-0.57 -0.117,-3.79099999 -4.191,-4.13599999 -3.57499998,0.001 -4.20799998,3.36699999 -4.20699998,4.34799999 z" style="fill: black; stroke-width: 0.5px; stroke: black;"/></g><rect x="0" y="0" width="100" height="80" class="djs-hit" style="fill: none; stroke-opacity: 0; stroke: white; stroke-width: 15px;"/><rect x="-6" y="-6" width="112" height="92" class="djs-outline" style="fill: none;"/></g></g><g class="djs-group"><g class="djs-element djs-shape" data-element-id="EndEvent_0hwtvsl" style="display: block;" transform="translate(-54 372)"><g class="djs-visual"><circle cx="18" cy="18" r="18" style="stroke: black; stroke-width: 4px; fill: red;"/></g><rect x="0" y="0" width="36" height="36" class="djs-hit" style="fill: none; stroke-opacity: 0; stroke: white; stroke-width: 15px;"/><rect x="-6" y="-6" width="48" height="48" class="djs-outline" style="fill: none;"/></g></g><g class="djs-group"><g class="djs-element djs-connection" data-element-id="SequenceFlow_0sgvh6l" style="display: block;"><g class="djs-visual"><path d="m  -868,390L-825,390 " style="fill: none; stroke-width: 2px; stroke: black; stroke-linejoin: round; marker-end: url('#sequenceflow-end-white-black');"/></g><polyline points="-868,390 -825,390 " class="djs-hit" style="fill: none; stroke-opacity: 0; stroke: white; stroke-width: 15px;"/><rect x="-874" y="384" width="55" height="12" class="djs-outline" style="fill: none;"/></g></g><g class="djs-group"><g class="djs-element djs-shape" data-element-id="StartEvent_1uqjwxz_label" style="display: block;" transform="translate(-919 414)"><g class="djs-visual"><text class="djs-label" style="font-family: Arial, sans-serif; font-size: 11px;"><tspan x="0" y="12">Necesidad de </tspan><tspan x="16" y="24">Control </tspan></text></g><rect x="0" y="0" width="67" height="24" class="djs-hit" style="fill: none; stroke-opacity: 0; stroke: white; stroke-width: 15px;"/><rect x="-6" y="-6" width="79" height="36" class="djs-outline" style="fill: none;"/></g></g><g class="djs-group"><g class="djs-element djs-connection" data-element-id="SequenceFlow_1jkpl7o" style="display: block;"><g class="djs-visual"><path d="m  -571,390L-516,390 " style="fill: none; stroke-width: 2px; stroke: black; stroke-linejoin: round; marker-end: url('#sequenceflow-end-white-black');"/></g><polyline points="-571,390 -516,390 " class="djs-hit" style="fill: none; stroke-opacity: 0; stroke: white; stroke-width: 15px;"/><rect x="-577" y="384" width="67" height="12" class="djs-outline" style="fill: none;"/></g></g><g class="djs-group"><g class="djs-element djs-connection" data-element-id="SequenceFlow_1jvfhyo" style="display: block;"><g class="djs-visual"><path d="m  -725,390L-671,390 " style="fill: none; stroke-width: 2px; stroke: black; stroke-linejoin: round; marker-end: url('#sequenceflow-end-white-black');"/></g><polyline points="-725,390 -671,390 " class="djs-hit" style="fill: none; stroke-opacity: 0; stroke: white; stroke-width: 15px;"/><rect x="-731" y="384" width="66" height="12" class="djs-outline" style="fill: none;"/></g></g><g class="djs-group"><g class="djs-element djs-connection" data-element-id="SequenceFlow_0oz3hps" style="display: block;"><g class="djs-visual"><path d="m  -104,390L-54,390 " style="fill: none; stroke-width: 2px; stroke: black; stroke-linejoin: round; marker-end: url('#sequenceflow-end-white-black');"/></g><polyline points="-104,390 -54,390 " class="djs-hit" style="fill: none; stroke-opacity: 0; stroke: white; stroke-width: 15px;"/><rect x="-110" y="384" width="62" height="12" class="djs-outline" style="fill: none;"/></g></g><g class="djs-group"><g class="djs-element djs-shape" data-element-id="SequenceFlow_0sgvh6l_label" style="display: none;" transform="translate(-846.5 369)"><g class="djs-visual"><text class="djs-label" style="font-family: Arial, sans-serif; font-size: 11px;"><tspan x="0" y="12"/></text></g><rect x="0" y="0" width="0" height="12" class="djs-hit" style="fill: none; stroke-opacity: 0; stroke: white; stroke-width: 15px;"/><rect x="-6" y="-6" width="12" height="24" class="djs-outline" style="fill: none;"/></g></g><g class="djs-group"><g class="djs-element djs-connection" data-element-id="SequenceFlow_0670tju" style="display: block;"><g class="djs-visual"><path d="m  -416,390L-361,390 " style="fill: none; stroke-width: 2px; stroke: black; stroke-linejoin: round; marker-end: url('#sequenceflow-end-white-black');"/></g><polyline points="-416,390 -361,390 " class="djs-hit" style="fill: none; stroke-opacity: 0; stroke: white; stroke-width: 15px;"/><rect x="-422" y="384" width="67" height="12" class="djs-outline" style="fill: none;"/></g></g><g class="djs-group"><g class="djs-element djs-shape" data-element-id="SequenceFlow_1jvfhyo_label" style="display: none;" transform="translate(-698 369)"><g class="djs-visual"><text class="djs-label" style="font-family: Arial, sans-serif; font-size: 11px;"><tspan x="0" y="12"/></text></g><rect x="0" y="0" width="0" height="12" class="djs-hit" style="fill: none; stroke-opacity: 0; stroke: white; stroke-width: 15px;"/><rect x="-6" y="-6" width="12" height="24" class="djs-outline" style="fill: none;"/></g></g><g class="djs-group"><g class="djs-element djs-shape" data-element-id="SequenceFlow_1jkpl7o_label" style="display: none;" transform="translate(-543.5 369)"><g class="djs-visual"><text class="djs-label" style="font-family: Arial, sans-serif; font-size: 11px;"><tspan x="0" y="12"/></text></g><rect x="0" y="0" width="0" height="12" class="djs-hit" style="fill: none; stroke-opacity: 0; stroke: white; stroke-width: 15px;"/><rect x="-6" y="-6" width="12" height="24" class="djs-outline" style="fill: none;"/></g></g><g class="djs-group"><g class="djs-element djs-shape" data-element-id="SequenceFlow_0670tju_label" style="display: none;" transform="translate(-388.5 369)"><g class="djs-visual"><text class="djs-label" style="font-family: Arial, sans-serif; font-size: 11px;"><tspan x="0" y="12"/></text></g><rect x="0" y="0" width="0" height="12" class="djs-hit" style="fill: none; stroke-opacity: 0; stroke: white; stroke-width: 15px;"/><rect x="-6" y="-6" width="12" height="24" class="djs-outline" style="fill: none;"/></g></g><g class="djs-group"><g class="djs-element djs-connection" data-element-id="SequenceFlow_0djyofd" style="display: block;"><g class="djs-visual"><path d="m  -261,390L-204,390 " style="fill: none; stroke-width: 2px; stroke: black; stroke-linejoin: round; marker-end: url('#sequenceflow-end-white-black');"/></g><polyline points="-261,390 -204,390 " class="djs-hit" style="fill: none; stroke-opacity: 0; stroke: white; stroke-width: 15px;"/><rect x="-267" y="384" width="69" height="12" class="djs-outline" style="fill: none;"/></g></g><g class="djs-group"><g class="djs-element djs-shape" data-element-id="SequenceFlow_0djyofd_label" style="display: none;" transform="translate(-232.5 369)"><g class="djs-visual"><text class="djs-label" style="font-family: Arial, sans-serif; font-size: 11px;"><tspan x="0" y="12"/></text></g><rect x="0" y="0" width="0" height="12" class="djs-hit" style="fill: none; stroke-opacity: 0; stroke: white; stroke-width: 15px;"/><rect x="-6" y="-6" width="12" height="24" class="djs-outline" style="fill: none;"/></g></g><g class="djs-group"><g class="djs-element djs-shape" data-element-id="SequenceFlow_0oz3hps_label" style="display: none;" transform="translate(-79 369)"><g class="djs-visual"><text class="djs-label" style="font-family: Arial, sans-serif; font-size: 11px;"><tspan x="0" y="12"/></text></g><rect x="0" y="0" width="0" height="12" class="djs-hit" style="fill: none; stroke-opacity: 0; stroke: white; stroke-width: 15px;"/><rect x="-6" y="-6" width="12" height="24" class="djs-outline" style="fill: none;"/></g></g><g class="djs-group"><g class="djs-element djs-shape" data-element-id="EndEvent_0hwtvsl_label" style="display: block;" transform="translate(-69 418)"><g class="djs-visual"><text class="djs-label" style="font-family: Arial, sans-serif; font-size: 11px;"><tspan x="0" y="12">Configuracion </tspan><tspan x="9.5" y="24">Concluida </tspan></text></g><rect x="0" y="0" width="67" height="24" class="djs-hit" style="fill: none; stroke-opacity: 0; stroke: white; stroke-width: 15px;"/><rect x="-6" y="-6" width="79" height="36" class="djs-outline" style="fill: none;"/></g></g></g></g><g class="djs-drag-group" style="pointer-events: none;" transform="translate(-113 0)"/><g class="djs-drag-group" style="pointer-events: none;" transform="translate(-295 0)"/><g class="djs-drag-group" style="pointer-events: none;" transform="translate(138 0)"/><g class="djs-drag-group" style="pointer-events: none;" transform="translate(5 5)"/><g class="djs-drag-group" style="pointer-events: none;" transform="translate(0 -6)"/><g class="djs-drag-group" style="pointer-events: none;" transform="translate(-3 -9)"/><g class="djs-drag-group" style="pointer-events: none;" transform="translate(-3 -55)"/><g class="djs-drag-group" style="pointer-events: none;" transform="translate(142 0)"/><g class="djs-drag-group" style="pointer-events: none;" transform="translate(36 4)"/><g class="djs-drag-group" style="pointer-events: none;" transform="translate(2 -34)"/><g class="djs-drag-group" style="pointer-events: none;" transform="translate(24 0)"/><g class="djs-drag-group" style="pointer-events: none;" transform="translate(-263 0)"/><g class="djs-drag-group" style="pointer-events: none;" transform="translate(19 0)"/><g class="djs-drag-group" style="pointer-events: none;" transform="translate(-231 0)"/><g class="djs-drag-group" style="pointer-events: none;" transform="translate(49 0)"/><g class="djs-drag-group" style="pointer-events: none;" transform="translate(-182 0)"/><g class="djs-drag-group" style="pointer-events: none;" transform="translate(-172 0)"/><g class="djs-drag-group" style="pointer-events: none;" transform="translate(-249 0)"/><g class="djs-drag-group" style="pointer-events: none;" transform="translate(-397 0)"/><g class="djs-drag-group" style="pointer-events: none;" transform="translate(-442 0)"/><g class="djs-drag-group" style="pointer-events: none;" transform="translate(-946 -37)"/><g class="djs-drag-group" style="pointer-events: none;" transform="translate(-158 249)"/><g class="djs-drag-group" style="pointer-events: none;" transform="translate(-571 -12)"/><g class="djs-drag-group" style="pointer-events: none;" transform="translate(-4 1)"/><g class="djs-drag-group" style="pointer-events: none;" transform="translate(-193 12)"/><g class="djs-drag-group" style="pointer-events: none;" transform="translate(14 0)"/><g class="djs-drag-group" style="pointer-events: none;" transform="translate(28 0)"/><g class="djs-drag-group" style="pointer-events: none;" transform="translate(22 0)"/><g class="djs-drag-group" style="pointer-events: none;" transform="translate(16 0)"/><g class="djs-drag-group" style="pointer-events: none;" transform="translate(-13 0)"/><g class="djs-drag-group" style="pointer-events: none;" transform="translate(-14 0)"/><g class="djs-drag-group" style="pointer-events: none;" transform="translate(-19 0)"/><g class="djs-drag-group" style="pointer-events: none;" transform="translate(-8 0)"/><g class="djs-drag-group" style="pointer-events: none;" transform="translate(-26 0)"/><g class="djs-drag-group" style="pointer-events: none;" transform="translate(-25 0)"/><g class="djs-drag-group" style="pointer-events: none;" transform="translate(-34 0)"/><g class="djs-drag-group" style="pointer-events: none;" transform="translate(-6 0)"/><g class="djs-drag-group" style="pointer-events: none;" transform="translate(-9 0)"/><g class="djs-drag-group" style="pointer-events: none;" transform="translate(-7 0)"/><g class="djs-drag-group" style="pointer-events: none;" transform="translate(-5 0)"/><g class="djs-drag-group" style="pointer-events: none;" transform="translate(8 0)"/><g class="djs-drag-group" style="pointer-events: none;" transform="translate(473 107)"/><g class="djs-drag-group" style="pointer-events: none;" transform="translate(0 -13)"/><g class="djs-drag-group" style="pointer-events: none;" transform="translate(0 0)"/><g class="djs-drag-group" style="pointer-events: none;" transform="translate(177 0)"/><g class="djs-drag-group" style="pointer-events: none;" transform="translate(158 0)"/><g class="djs-drag-group" style="pointer-events: none;" transform="translate(-147 0)"/><g class="djs-drag-group" style="pointer-events: none;" transform="translate(144 1)"/><g class="djs-drag-group" style="pointer-events: none;" transform="translate(-111 -14)"/><g class="djs-drag-group" style="pointer-events: none;" transform="translate(-144 -30)"/><g class="djs-drag-group" style="pointer-events: none;" transform="translate(0 27)"/><g class="djs-drag-group" style="pointer-events: none;" transform="translate(-66 -23)"/><g class="djs-drag-group" style="pointer-events: none;" transform="translate(-1 50)"/><g class="djs-drag-group" style="pointer-events: none;" transform="translate(12 65)"/><g class="djs-drag-group" style="pointer-events: none;" transform="translate(-12 -2)"/><g class="djs-drag-group" style="pointer-events: none;" transform="translate(-166 -14)"/><g class="djs-drag-group" style="pointer-events: none;" transform="translate(2 -101)"/><g class="djs-drag-group" style="pointer-events: none;" transform="translate(4 -2)"/><g class="djs-drag-group" style="pointer-events: none;" transform="translate(-85 -9)"/><g class="djs-drag-group" style="pointer-events: none;" transform="translate(97 9)"/><g class="djs-drag-group" style="pointer-events: none;" transform="translate(-97 -9)"/><g class="djs-drag-group" style="pointer-events: none;" transform="translate(0 13)"/><g class="djs-drag-group" style="pointer-events: none;" transform="translate(1 7)"/><g class="djs-drag-group" style="pointer-events: none;" transform="translate(-1 14)"/><g class="djs-drag-group" style="pointer-events: none;" transform="translate(0 7)"/><g class="djs-drag-group" style="pointer-events: none;" transform="translate(30 8)"/><g class="djs-drag-group" style="pointer-events: none;" transform="translate(177 -117)"/><g class="djs-drag-group" style="pointer-events: none;" transform="translate(0 19)"/><g class="djs-drag-group" style="pointer-events: none;" transform="translate(8 0)"/><g class="djs-drag-group" style="pointer-events: none;" transform="translate(4 -12)"/><g class="djs-drag-group" style="pointer-events: none;" transform="translate(6 12)"/><g class="djs-drag-group" style="pointer-events: none;" transform="translate(-18 0)"/><g class="djs-drag-group" style="pointer-events: none;" transform="translate(1 10)"/><g class="djs-drag-group" style="pointer-events: none;" transform="translate(0 13)"/><g class="djs-drag-group" style="pointer-events: none;" transform="translate(0 0)"/><g class="djs-drag-group" style="pointer-events: none;" transform="translate(0 13)"/><g class="djs-drag-group" style="pointer-events: none;" transform="translate(0 13)"/><g class="djs-drag-group" style="pointer-events: none;" transform="translate(136 0)"/><g class="djs-drag-group" style="pointer-events: none;" transform="translate(7 -52)"/><g class="djs-drag-group" style="pointer-events: none;" transform="translate(-136 0)"/><g class="djs-drag-group" style="pointer-events: none;" transform="translate(19 -21)"/><g class="djs-drag-group" style="pointer-events: none;" transform="translate(-3 2)"/><g class="djs-drag-group" style="pointer-events: none;" transform="translate(38 0)"/><g class="djs-drag-group" style="pointer-events: none;" transform="translate(25 9)"/><g class="djs-drag-group" style="pointer-events: none;" transform="translate(17 10)"/><g class="djs-drag-group" style="pointer-events: none;" transform="translate(386 232)"/><g class="djs-drag-group" style="pointer-events: none;" transform="translate(-191 0)"/><g class="djs-drag-group" style="pointer-events: none;" transform="translate(-3 271)"/><g class="djs-drag-group" style="pointer-events: none;" transform="translate(1 22)"/><g class="djs-drag-group" style="pointer-events: none;" transform="translate(-182 0)"/><g class="djs-drag-group" style="pointer-events: none;" transform="translate(-182 18)"/><g class="djs-drag-group" style="pointer-events: none;" transform="translate(-83 2)"/><g class="djs-drag-group" style="pointer-events: none;" transform="translate(-173 0)"/><g class="djs-drag-group" style="pointer-events: none;" transform="translate(35 0)"/><g class="djs-drag-group" style="pointer-events: none;" transform="translate(-71 0)"/><g class="djs-drag-group" style="pointer-events: none;" transform="translate(136 0)"/><g class="djs-drag-group" style="pointer-events: none;" transform="translate(-357 0)"/><g class="djs-drag-group" style="pointer-events: none;" transform="translate(129 0)"/><g class="djs-drag-group" style="pointer-events: none;" transform="translate(129 0)"/><g class="djs-drag-group" style="pointer-events: none;" transform="translate(-43 -60)"/><g class="djs-drag-group" style="pointer-events: none;" transform="translate(21 0)"/><g class="djs-drag-group" style="pointer-events: none;" transform="translate(57 0)"/><g class="djs-drag-group" style="pointer-events: none;" transform="translate(57 -9)"/><g class="djs-drag-group" style="pointer-events: none;" transform="translate(0 9)"/><g class="djs-drag-group" style="pointer-events: none;" transform="translate(-180 -9)"/><g class="djs-drag-group" style="pointer-events: none;" transform="translate(-332 -23)"/><g class="djs-drag-group" style="pointer-events: none;" transform="translate(-89 0)"/><g class="djs-drag-group" style="pointer-events: none;" transform="translate(-322 -26)"/><g class="djs-drag-group" style="pointer-events: none;" transform="translate(0 26)"/><g class="djs-drag-group" style="pointer-events: none;" transform="translate(51 0)"/><g class="djs-drag-group" style="pointer-events: none;" transform="translate(-22 0)"/><g class="djs-drag-group" style="pointer-events: none;" transform="translate(43 6)"/><g class="djs-drag-group" style="pointer-events: none;" transform="translate(29 0)"/><g class="djs-drag-group" style="pointer-events: none;" transform="translate(-28 0)"/><g class="djs-drag-group" style="pointer-events: none;" transform="translate(-44 0)"/><g class="djs-drag-group" style="pointer-events: none;" transform="translate(-150 -157)"/><g class="djs-drag-group" style="pointer-events: none;" transform="translate(5 0)"/><g class="djs-drag-group" style="pointer-events: none;" transform="translate(14 0)"/><g class="djs-drag-group" style="pointer-events: none;" transform="translate(9 0)"/><g class="djs-drag-group" style="pointer-events: none;" transform="translate(6 0)"/><g class="djs-drag-group" style="pointer-events: none;" transform="translate(42 0)"/><g class="djs-drag-group" style="pointer-events: none;" transform="translate(64 0)"/><g class="djs-drag-group" style="pointer-events: none;" transform="translate(36 0)"/><g class="djs-drag-group" style="pointer-events: none;" transform="translate(-6 0)"/><g class="djs-drag-group" style="pointer-events: none;" transform="translate(11 0)"/><g class="djs-drag-group" style="pointer-events: none;" transform="translate(-8 0)"/><g class="djs-drag-group" style="pointer-events: none;" transform="translate(6 -1)"/><g class="djs-drag-group" style="pointer-events: none;" transform="translate(10 0)"/><g class="djs-drag-group" style="pointer-events: none;" transform="translate(-1 0)"/><g class="djs-drag-group" style="pointer-events: none;" transform="translate(-1 0)"/><g class="djs-drag-group" style="pointer-events: none;" transform="translate(110 0)"/><g class="djs-drag-group" style="pointer-events: none;" transform="translate(-122 0)"/><g class="djs-drag-group" style="pointer-events: none;" transform="translate(15 0)"/><g class="djs-drag-group" style="pointer-events: none;" transform="translate(-18 0)"/><g class="djs-drag-group" style="pointer-events: none;" transform="translate(9 0)"/><g class="djs-drag-group" style="pointer-events: none;" transform="translate(1 1)"/><g class="djs-drag-group" style="pointer-events: none;" transform="translate(6 0)"/><g class="djs-drag-group" style="pointer-events: none;" transform="translate(52 -78)"/><g class="djs-drag-group" style="pointer-events: none;" transform="translate(7 126)"/><g class="djs-drag-group" style="pointer-events: none;" transform="translate(-10 -126)"/><g class="djs-drag-group" style="pointer-events: none;" transform="translate(-150 0)"/><g class="djs-drag-group" style="pointer-events: none;" transform="translate(-141 0)"/></svg>